<?xml version="1.0" encoding="utf-8"?>
<!-- Generator: Adobe Illustrator 28.2.0, SVG Export Plug-In . SVG Version: 6.00 Build 0)  -->
<svg version="1.1" id="Capa_1" xmlns="http://www.w3.org/2000/svg" xmlns:xlink="http://www.w3.org/1999/xlink" x="0px" y="0px"
	 viewBox="0 0 512 512" style="enable-background:new 0 0 512 512;" xml:space="preserve">
<style type="text/css">
	.st0{fill:#F44336;}
</style>
<path class="st0" d="M128.5,23.3c26-20.3,76-26.1,96.6-22.1c20.6,3.9,31.4,15.4,31.5,29.3l1.2,177.5c0.1,14-7.2,26.8-16.2,28.5
	c-9.1,1.7-22.4-6.6-29.8-18.5L117.9,65.8C110.7,53.9,96,48.7,128.5,23.3L128.5,23.3z M97.3,360.9l94.5-33.2
	c13.2-4.6,25-17.5,26.3-28.7c1.3-11.2-8.3-24.5-21.3-29.6L97,230.1c-13-5.1-28,7-31.9,26.8c0,0-2.4,68.9,0,83.1
	C67.5,354.3,84.1,365.6,97.3,360.9L97.3,360.9z M262.1,377.5c0.3-14-7.2-26-16.7-26.9c-9.5-0.9-24.5,7.1-33.5,17.8L146,446.9
	c-9,10.7-4.5,35.7,8.6,40.4l68.9,23.7c13.1,4.7,36.2-9.3,36.5-23.2L262.1,377.5L262.1,377.5z M425.9,359.3l-82.7-23.6
	c-13.4-3.8-28.6-3.5-33.8,0.9c-5.2,4.3-3.9,17.8,2.9,30l52.2,94.8c6.7,12.2,33.7,10.1,41.2-1.7c0,0,31.4-46,37.2-63.3
	C448.7,379,439.4,363.1,425.9,359.3L425.9,359.3z M446.1,226c-3.7-12-29.6-47.3-43.6-59.4c-14-12.1-30-10.6-39,0l-53.3,63
	c-9,10.6-11.5,27.4-5.4,37.3c6,9.9,22,15.5,35.7,12.4l92.1-17C449.3,258.5,449.9,238,446.1,226L446.1,226z"/>
</svg>
